# xmcd
#
# Track frame offsets:
#	150
#	16277
#	32382
#	49302
#	67850
#	87265
#	110115
#	126320
#	143845
#	159152
#	177435
#	197260
#
# Disc length: 2944 seconds
#
# Revision: 0
# Processed by: cddbd v1.4PL0 Copyright (c) Steve Scherf et al.
# Submitted via: dBpowerAMP V4.0
#
DISCID=980b7e0c
DTITLE=Tauski - Suuria rakkaustarinoita
DYEAR=1995
DGENRE=Misc
TTITLE0=Minä jumaloin sinua
TTITLE1=Vuonna jotakin
TTITLE2=Suuri rakkaustarina
TTITLE3=Valkoinen ratsu
TTITLE4=Älä unohda mua
TTITLE5=Oli kesä, oli kesä
TTITLE6=Kadotettu sydän - The riddle
TTITLE7=Sateen jälkeen
TTITLE8=Olet niin kaunis
TTITLE9=Minulla on ikävä
TTITLE10=Minä jumaloin sinua(remix)
TTITLE11=Oli kesä, oli kesä(remix)
EXTD=
EXTT0=
EXTT1=
EXTT2=
EXTT3=
EXTT4=
EXTT5=
EXTT6=
EXTT7=
EXTT8=
EXTT9=
EXTT10=
EXTT11=
PLAYORDER=
